<svg xmlns="http://www.w3.org/2000/svg" version="1.1" xmlns:xlink="http://www.w3.org/1999/xlink" xmlns:svgjs="http://svgjs.dev/svgjs" width="1500" height="1500" viewBox="0 0 1500 1500"><rect width="1500" height="1500" fill="#ffffff"></rect><g transform="matrix(0.6666666666666666,0,0,0.6666666666666666,249.39393939393938,675.5330522841164)"><svg viewBox="0 0 396 59" data-background-color="#ffffff" preserveAspectRatio="xMidYMid meet" height="223" width="1500" xmlns="http://www.w3.org/2000/svg" xmlns:xlink="http://www.w3.org/1999/xlink"><g id="tight-bounds" transform="matrix(1,0,0,1,0.2400000000000091,0.05302633567575299)"><svg viewBox="0 0 395.52 58.88876211360847" height="58.88876211360847" width="395.52"><g><svg viewBox="0 0 663.2645998974114 98.75311296960042" height="58.88876211360847" width="395.52"><g transform="matrix(1,0,0,1,267.7445998974114,0)"><svg viewBox="0 0 395.52 98.75311296960042" height="98.75311296960042" width="395.52"><g id="textblocktransform"><svg viewBox="0 0 395.52 98.75311296960042" height="98.75311296960042" width="395.52" id="textblock"><g><svg viewBox="0 0 395.52 98.75311296960042" height="98.75311296960042" width="395.52"><g transform="matrix(1,0,0,1,0,0)"><svg width="395.52" viewBox="2.55 -35.8 145.79 36.4" height="98.75311296960042" data-palette-color="#ff851b"><path d="M6.8 0L2.55 0 8.4-35 19.65-35Q23.1-35 25.53-33.6 27.95-32.2 29.08-29.75 30.2-27.3 29.6-24.15L29.6-24.15Q29.1-21.1 27.15-18.75 25.2-16.4 22.25-15.08 19.3-13.75 15.85-13.75L15.85-13.75 9.1-13.75 6.8 0ZM26.9 0L22.35 0 16.35-14.35 19.95-16.55 26.9 0ZM12-31.15L9.75-17.65 17.4-17.65Q19.35-17.65 21.05-18.53 22.75-19.4 23.95-21 25.15-22.6 25.45-24.65L25.45-24.65Q25.9-27.6 24.18-29.38 22.45-31.15 19.25-31.15L19.25-31.15 12-31.15ZM43.9 0.6L43.9 0.6Q40.15 0.55 37.57-1.2 35-2.95 33.87-5.95 32.75-8.95 33.4-12.85L33.4-12.85Q34.05-16.65 36.1-19.55 38.15-22.45 41.15-24.05 44.15-25.65 47.7-25.6L47.7-25.6Q51.35-25.55 53.65-23.8 55.95-22.05 56.82-18.98 57.7-15.9 57-11.85L57-11.85 37.3-11.85Q36.95-9.15 37.67-7.13 38.4-5.1 40.05-3.98 41.7-2.85 44.1-2.85L44.1-2.85Q46.8-2.8 48.95-4.15 51.1-5.5 52.45-7.55L52.45-7.55 55.65-5.6Q54.4-3.6 52.57-2.2 50.75-0.8 48.52-0.08 46.3 0.65 43.9 0.6ZM38.05-15.05L38.05-15.05 53.35-15.05Q53.4-18.25 51.97-20.25 50.55-22.25 47.45-22.25L47.45-22.25Q44.3-22.3 41.77-20.3 39.25-18.3 38.05-15.05ZM82.4 0L78.59 0 79.2-4.65 82.59-25 86.59-25 82.4 0ZM70.15 0.6L70.15 0.6Q67.2 0.6 65-0.8 62.8-2.2 61.62-4.67 60.45-7.15 60.55-10.4L60.55-10.4Q60.65-13.35 61.62-16.07 62.6-18.8 64.37-20.95 66.15-23.1 68.55-24.35 70.95-25.6 73.9-25.6L73.9-25.6Q76.84-25.6 78.84-24.23 80.84-22.85 81.84-20.43 82.84-18 82.7-14.75L82.7-14.75Q82.65-10.95 81.55-8.08 80.45-5.2 78.67-3.28 76.9-1.35 74.7-0.38 72.5 0.6 70.15 0.6ZM71.25-3.05L71.25-3.05Q73.45-3.05 75.17-4.05 76.9-5.05 78.12-6.75 79.34-8.45 80-10.5 80.65-12.55 80.7-14.65L80.7-14.65Q80.75-17.95 79.09-19.95 77.45-21.95 74.59-21.95L74.59-21.95Q72.34-21.95 70.55-20.95 68.75-19.95 67.4-18.3 66.05-16.65 65.34-14.63 64.65-12.6 64.59-10.5L64.59-10.5Q64.55-7.2 66.37-5.13 68.2-3.05 71.25-3.05ZM111.74 0L107.94 0 108.54-4.65 113.59-35 117.59-35 111.74 0ZM99.49 0.6L99.49 0.6Q96.54 0.6 94.34-0.8 92.14-2.2 90.97-4.67 89.79-7.15 89.89-10.4L89.89-10.4Q89.99-13.35 90.97-16.07 91.94-18.8 93.72-20.95 95.49-23.1 97.89-24.35 100.29-25.6 103.24-25.6L103.24-25.6Q106.19-25.6 108.19-24.23 110.19-22.85 111.19-20.43 112.19-18 112.04-14.75L112.04-14.75Q111.99-10.95 110.89-8.08 109.79-5.2 108.02-3.28 106.24-1.35 104.04-0.38 101.84 0.6 99.49 0.6ZM100.59-3.05L100.59-3.05Q102.79-3.05 104.52-4.05 106.24-5.05 107.47-6.75 108.69-8.45 109.34-10.5 109.99-12.55 110.04-14.65L110.04-14.65Q110.09-17.95 108.44-19.95 106.79-21.95 103.94-21.95L103.94-21.95Q101.69-21.95 99.89-20.95 98.09-19.95 96.74-18.3 95.39-16.65 94.69-14.63 93.99-12.6 93.94-10.5L93.94-10.5Q93.89-7.2 95.72-5.13 97.54-3.05 100.59-3.05ZM122.99 0L118.99 0 123.29-25 127.29-25 122.99 0ZM126.64-30.8L126.64-30.8Q125.64-30.8 124.89-31.55 124.14-32.3 124.14-33.3L124.14-33.3Q124.14-34.35 124.89-35.08 125.64-35.8 126.64-35.8L126.64-35.8Q127.69-35.8 128.41-35.08 129.14-34.35 129.14-33.3L129.14-33.3Q129.14-32.3 128.41-31.55 127.69-30.8 126.64-30.8ZM140.04 0.6L140.04 0.6Q136.44 0.6 134.81-1.33 133.19-3.25 133.79-6.75L133.79-6.75 138.14-32.8 142.14-32.8 137.79-7Q137.49-5.1 138.26-4.1 139.04-3.1 140.84-3.1L140.84-3.1Q141.44-3.1 142.11-3.35 142.79-3.6 143.89-4.15L143.89-4.15 145.04-0.85Q143.44 0 142.26 0.3 141.09 0.6 140.04 0.6ZM147.74-21.45L131.94-21.45 132.49-25 148.34-25 147.74-21.45Z" opacity="1" transform="matrix(1,0,0,1,0,0)" fill="#ff851b" class="wordmark-text-0" data-fill-palette-color="primary" id="text-0"></path></svg></g></svg></g></svg></g></svg></g><g transform="matrix(1,0,0,1,0,2.8505748048002175)"><svg viewBox="0 0 244.43135999999998 93.05196335999999" height="93.05196335999999" width="244.43135999999998"><g><svg xmlns="http://www.w3.org/2000/svg" xmlns:xlink="http://www.w3.org/1999/xlink" version="1.1" x="0" y="0" viewBox="0 17 32 12.181999999999999" style="enable-background:new 0 0 32 32;" xml:space="preserve" height="93.05196335999999" width="244.43135999999998" class="icon-icon-0" data-fill-palette-color="accent" id="icon-0"><g fill="#ff851b" data-fill-palette-color="accent"><path d="M7 29.182C3.691 29.182 1 26.491 1 23.182S3.691 17.182 7 17.182 13 19.873 13 23.182 10.309 29.182 7 29.182M7 19.182C4.794 19.182 3 20.976 3 23.182S4.794 27.182 7 27.182 11 25.388 11 23.182 9.206 19.182 7 19.182" fill="#ff851b" data-fill-palette-color="accent"></path><path d="M25 29C21.691 29 19 26.309 19 23S21.691 17 25 17 31 19.691 31 23 28.309 29 25 29M25 19C22.794 19 21 20.794 21 23S22.794 27 25 27 29 25.206 29 23 27.206 19 25 19" fill="#ff851b" data-fill-palette-color="accent"></path><path d="M20 24A1 1 0 0 1 19 23C19 21.346 17.654 20 16 20S13 21.346 13 23A1 1 0 1 1 11 23C11 20.243 13.243 18 16 18S21 20.243 21 23A1 1 0 0 1 20 24" fill="#ff851b" data-fill-palette-color="accent"></path><circle cx="1" cy="23.083" r="1.0" fill="#ff851b" data-fill-palette-color="accent"></circle><circle cx="31" cy="23.083" r="1.0" fill="#ff851b" data-fill-palette-color="accent"></circle></g></svg></g></svg></g></svg></g><defs></defs></svg><rect width="395.52" height="58.88876211360847" fill="none" stroke="none" visibility="hidden"></rect></g></svg></g></svg>